<svg width="17" height="17" viewBox="0 0 17 17" fill="none" xmlns="http://www.w3.org/2000/svg">
<path d="M14.1038 9.65071C13.445 8.99222 12.3729 8.99222 11.7141 9.65071L10.9935 10.3709C9.20421 9.39646 7.75629 7.9493 6.7811 6.16095L7.50168 5.44075C8.16075 4.78225 8.16075 3.71073 7.50168 3.05223L5.55986 1.11143C4.90102 0.45293 3.82894 0.45293 3.1701 1.11143L1.61673 2.66398C0.72694 3.55331 0.682552 5.08222 1.49168 6.96921C2.19423 8.60757 3.47992 10.4083 5.11192 12.0395C6.74392 13.6706 8.5456 14.9556 10.1848 15.6578C11.0818 16.042 11.8977 16.2337 12.6027 16.2337C13.3817 16.2337 14.0252 15.9997 14.4923 15.5328L16.0456 13.98V13.9803C16.3649 13.6611 16.5407 13.2371 16.5407 12.786C16.5407 12.3347 16.3649 11.9106 16.0456 11.5917L14.1038 9.65071ZM13.2674 14.3086C13.0135 14.5624 12.2325 14.6514 10.8673 14.0667C9.4257 13.4492 7.81668 12.2944 6.33677 10.8152C4.85686 9.3361 3.70163 7.72815 3.0838 6.28729C2.49864 4.92278 2.58764 4.142 2.84158 3.88819L4.36521 2.36536L6.24709 4.24649L5.34513 5.14821C4.9373 5.55583 4.83883 6.17401 5.10043 6.68658C6.2863 9.01068 8.14227 10.8657 10.4676 12.0509C10.9806 12.3124 11.5992 12.2142 12.007 11.8064L12.9089 10.9049L14.7911 12.786L13.2674 14.3086Z" fill="white"/>
</svg>
